<svg id="visual" viewBox="0 0 1600 250" width="1600" height="250" xmlns="http://www.w3.org/2000/svg" xmlns:xlink="http://www.w3.org/1999/xlink" version="1.1"><rect x="0" y="0" width="1600" height="250" fill="#eee"></rect><path d="M0 107L33.3 117.8C66.7 128.7 133.3 150.3 200 167C266.7 183.7 333.3 195.3 400 190.3C466.7 185.3 533.3 163.7 600 169.7C666.7 175.7 733.3 209.3 800 193.2C866.7 177 933.3 111 1000 95.7C1066.7 80.3 1133.3 115.7 1200 113.2C1266.7 110.7 1333.3 70.3 1400 52.2C1466.7 34 1533.3 38 1566.7 40L1600 42L1600 0L1566.7 0C1533.3 0 1466.7 0 1400 0C1333.3 0 1266.7 0 1200 0C1133.3 0 1066.7 0 1000 0C933.3 0 866.7 0 800 0C733.3 0 666.7 0 600 0C533.3 0 466.7 0 400 0C333.3 0 266.7 0 200 0C133.3 0 66.7 0 33.3 0L0 0Z" fill="#B6D0E2" stroke-linecap="round" stroke-linejoin="miter"></path></svg>