<svg id="visual" viewBox="0 0 1600 250" width="1600" height="250" xmlns="http://www.w3.org/2000/svg" xmlns:xlink="http://www.w3.org/1999/xlink" version="1.1"><rect x="0" y="0" width="1600" height="250" fill="#eee"></rect><path d="M0 157L26.7 148.8C53.3 140.7 106.7 124.3 160 124C213.3 123.7 266.7 139.3 320 150C373.3 160.7 426.7 166.3 480 167.3C533.3 168.3 586.7 164.7 640 155.2C693.3 145.7 746.7 130.3 800 120.8C853.3 111.3 906.7 107.7 960 104.2C1013.3 100.7 1066.7 97.3 1120 107.7C1173.3 118 1226.7 142 1280 147.8C1333.3 153.7 1386.7 141.3 1440 131.3C1493.3 121.3 1546.7 113.7 1573.3 109.8L1600 106L1600 0L1573.3 0C1546.7 0 1493.3 0 1440 0C1386.7 0 1333.3 0 1280 0C1226.7 0 1173.3 0 1120 0C1066.7 0 1013.3 0 960 0C906.7 0 853.3 0 800 0C746.7 0 693.3 0 640 0C586.7 0 533.3 0 480 0C426.7 0 373.3 0 320 0C266.7 0 213.3 0 160 0C106.7 0 53.3 0 26.7 0L0 0Z" fill="#ac00b1" stroke-linecap="round" stroke-linejoin="miter"></path></svg>