<svg id="visual" viewBox="0 0 1600 250" width="1600" height="250" xmlns="http://www.w3.org/2000/svg" xmlns:xlink="http://www.w3.org/1999/xlink" version="1.1"><rect x="0" y="0" width="1600" height="250" fill="#7200ab"></rect><path d="M0 191L29.7 185.5C59.3 180 118.7 169 178 160.7C237.3 152.3 296.7 146.7 355.8 155.5C415 164.3 474 187.7 533.2 188.3C592.3 189 651.7 167 711 172.2C770.3 177.3 829.7 209.7 889 211C948.3 212.3 1007.7 182.7 1066.8 180C1126 177.3 1185 201.7 1244.2 200.7C1303.3 199.7 1362.7 173.3 1422 166.7C1481.3 160 1540.7 173 1570.3 179.5L1600 186L1600 251L1570.3 251C1540.7 251 1481.3 251 1422 251C1362.7 251 1303.3 251 1244.2 251C1185 251 1126 251 1066.8 251C1007.7 251 948.3 251 889 251C829.7 251 770.3 251 711 251C651.7 251 592.3 251 533.2 251C474 251 415 251 355.8 251C296.7 251 237.3 251 178 251C118.7 251 59.3 251 29.7 251L0 251Z" fill="#eeeeee" stroke-linecap="round" stroke-linejoin="miter"></path></svg>