<svg id="visual" viewBox="0 0 900 100" width="900" height="100" xmlns="http://www.w3.org/2000/svg" xmlns:xlink="http://www.w3.org/1999/xlink" version="1.1"><path d="M0 92L6 92.5C12 93 24 94 36 92C48 90 60 85 72 85.3C84 85.7 96 91.3 108 91.7C120 92 132 87 144 84.5C156 82 168 82 180 82.3C192 82.7 204 83.3 216 85.7C228 88 240 92 252 92.7C264 93.3 276 90.7 288 90.2C300 89.7 312 91.3 324 91.2C336 91 348 89 360 87.3C372 85.7 384 84.3 396 84.5C408 84.7 420 86.3 432 87.8C444 89.3 456 90.7 468 90.7C480 90.7 492 89.3 504 89.7C516 90 528 92 540 91.5C552 91 564 88 576 88.5C588 89 600 93 612 92.2C624 91.3 636 85.7 648 85.2C660 84.7 672 89.3 684 92C696 94.7 708 95.3 720 94.3C732 93.3 744 90.7 756 89.8C768 89 780 90 792 88.7C804 87.3 816 83.7 828 84C840 84.3 852 88.7 864 89.8C876 91 888 89 894 88L900 87L900 101L894 101C888 101 876 101 864 101C852 101 840 101 828 101C816 101 804 101 792 101C780 101 768 101 756 101C744 101 732 101 720 101C708 101 696 101 684 101C672 101 660 101 648 101C636 101 624 101 612 101C600 101 588 101 576 101C564 101 552 101 540 101C528 101 516 101 504 101C492 101 480 101 468 101C456 101 444 101 432 101C420 101 408 101 396 101C384 101 372 101 360 101C348 101 336 101 324 101C312 101 300 101 288 101C276 101 264 101 252 101C240 101 228 101 216 101C204 101 192 101 180 101C168 101 156 101 144 101C132 101 120 101 108 101C96 101 84 101 72 101C60 101 48 101 36 101C24 101 12 101 6 101L0 101Z" fill="#fb3f32" stroke-linecap="round" stroke-linejoin="miter"></path></svg>