<svg id="visual" viewBox="0 0 1600 50" width="1600" height="50" xmlns="http://www.w3.org/2000/svg" xmlns:xlink="http://www.w3.org/1999/xlink" version="1.1"><rect x="0" y="0" width="1600" height="50" fill="#eee"></rect><path d="M0 23L10.7 22.7C21.3 22.3 42.7 21.7 64 23.3C85.3 25 106.7 29 128 30.3C149.3 31.7 170.7 30.3 192 29.8C213.3 29.3 234.7 29.7 256 28.8C277.3 28 298.7 26 320 24.8C341.3 23.7 362.7 23.3 384 21.5C405.3 19.7 426.7 16.3 448 17.3C469.3 18.3 490.7 23.7 512 27.8C533.3 32 554.7 35 576 34C597.3 33 618.7 28 640 27.7C661.3 27.3 682.7 31.7 704 33.8C725.3 36 746.7 36 768 33C789.3 30 810.7 24 832 21.3C853.3 18.7 874.7 19.3 896 22.2C917.3 25 938.7 30 960 30.5C981.3 31 1002.7 27 1024 25.5C1045.3 24 1066.7 25 1088 25.8C1109.3 26.7 1130.7 27.3 1152 29C1173.3 30.7 1194.7 33.3 1216 32.5C1237.3 31.7 1258.7 27.3 1280 23.2C1301.3 19 1322.7 15 1344 15.5C1365.3 16 1386.7 21 1408 20.8C1429.3 20.7 1450.7 15.3 1472 16.2C1493.3 17 1514.7 24 1536 26.7C1557.3 29.3 1578.7 27.7 1589.3 26.8L1600 26L1600 51L1589.3 51C1578.7 51 1557.3 51 1536 51C1514.7 51 1493.3 51 1472 51C1450.7 51 1429.3 51 1408 51C1386.7 51 1365.3 51 1344 51C1322.7 51 1301.3 51 1280 51C1258.7 51 1237.3 51 1216 51C1194.7 51 1173.3 51 1152 51C1130.7 51 1109.3 51 1088 51C1066.7 51 1045.3 51 1024 51C1002.7 51 981.3 51 960 51C938.7 51 917.3 51 896 51C874.7 51 853.3 51 832 51C810.7 51 789.3 51 768 51C746.7 51 725.3 51 704 51C682.7 51 661.3 51 640 51C618.7 51 597.3 51 576 51C554.7 51 533.3 51 512 51C490.7 51 469.3 51 448 51C426.7 51 405.3 51 384 51C362.7 51 341.3 51 320 51C298.7 51 277.3 51 256 51C234.7 51 213.3 51 192 51C170.7 51 149.3 51 128 51C106.7 51 85.3 51 64 51C42.7 51 21.3 51 10.7 51L0 51Z" fill="#fb3f32" stroke-linecap="round" stroke-linejoin="miter"></path></svg>