<svg id="visual" viewBox="0 0 1600 250" width="1600" height="250" xmlns="http://www.w3.org/2000/svg" xmlns:xlink="http://www.w3.org/1999/xlink" version="1.1"><rect x="0" y="0" width="1600" height="250" fill="#B6D0E2"></rect><path d="M0 148L14.8 146.2C29.7 144.3 59.3 140.7 89 141.8C118.7 143 148.3 149 178 150.3C207.7 151.7 237.3 148.3 267 150.2C296.7 152 326.3 159 355.8 159.8C385.3 160.7 414.7 155.3 444.2 150.8C473.7 146.3 503.3 142.7 533 145.5C562.7 148.3 592.3 157.7 622 167.5C651.7 177.3 681.3 187.7 711 190.2C740.7 192.7 770.3 187.3 800 189C829.7 190.7 859.3 199.3 889 198.5C918.7 197.7 948.3 187.3 978 182.7C1007.7 178 1037.3 179 1067 181C1096.7 183 1126.3 186 1155.8 179.5C1185.3 173 1214.7 157 1244.2 152.5C1273.7 148 1303.3 155 1333 161.7C1362.7 168.3 1392.3 174.7 1422 175.8C1451.7 177 1481.3 173 1511 172.3C1540.7 171.7 1570.3 174.3 1585.2 175.7L1600 177L1600 0L1585.2 0C1570.3 0 1540.7 0 1511 0C1481.3 0 1451.7 0 1422 0C1392.3 0 1362.7 0 1333 0C1303.3 0 1273.7 0 1244.2 0C1214.7 0 1185.3 0 1155.8 0C1126.3 0 1096.7 0 1067 0C1037.3 0 1007.7 0 978 0C948.3 0 918.7 0 889 0C859.3 0 829.7 0 800 0C770.3 0 740.7 0 711 0C681.3 0 651.7 0 622 0C592.3 0 562.7 0 533 0C503.3 0 473.7 0 444.2 0C414.7 0 385.3 0 355.8 0C326.3 0 296.7 0 267 0C237.3 0 207.7 0 178 0C148.3 0 118.7 0 89 0C59.3 0 29.7 0 14.8 0L0 0Z" fill="#b6d0e2"></path><path d="M0 119L14.8 125.5C29.7 132 59.3 145 89 150.3C118.7 155.7 148.3 153.3 178 148.8C207.7 144.3 237.3 137.7 267 135.7C296.7 133.7 326.3 136.3 355.8 133.7C385.3 131 414.7 123 444.2 123.3C473.7 123.7 503.3 132.3 533 134.3C562.7 136.3 592.3 131.7 622 133.2C651.7 134.7 681.3 142.3 711 143.5C740.7 144.7 770.3 139.3 800 139C829.7 138.7 859.3 143.3 889 140C918.7 136.7 948.3 125.3 978 125.3C1007.7 125.3 1037.3 136.7 1067 139.7C1096.7 142.7 1126.3 137.3 1155.8 135.7C1185.3 134 1214.7 136 1244.2 138.8C1273.7 141.7 1303.3 145.3 1333 151.2C1362.7 157 1392.3 165 1422 165.2C1451.7 165.3 1481.3 157.7 1511 150.3C1540.7 143 1570.3 136 1585.2 132.5L1600 129L1600 0L1585.2 0C1570.3 0 1540.7 0 1511 0C1481.3 0 1451.7 0 1422 0C1392.3 0 1362.7 0 1333 0C1303.3 0 1273.7 0 1244.2 0C1214.7 0 1185.3 0 1155.8 0C1126.3 0 1096.7 0 1067 0C1037.3 0 1007.7 0 978 0C948.3 0 918.7 0 889 0C859.3 0 829.7 0 800 0C770.3 0 740.7 0 711 0C681.3 0 651.7 0 622 0C592.3 0 562.7 0 533 0C503.3 0 473.7 0 444.2 0C414.7 0 385.3 0 355.8 0C326.3 0 296.7 0 267 0C237.3 0 207.7 0 178 0C148.3 0 118.7 0 89 0C59.3 0 29.7 0 14.8 0L0 0Z" fill="#aab9f2"></path><path d="M0 134L14.8 131.5C29.7 129 59.3 124 89 114.7C118.7 105.3 148.3 91.7 178 87.7C207.7 83.7 237.3 89.3 267 94.5C296.7 99.7 326.3 104.3 355.8 101.7C385.3 99 414.7 89 444.2 89.2C473.7 89.3 503.3 99.7 533 106.8C562.7 114 592.3 118 622 115.2C651.7 112.3 681.3 102.7 711 100.5C740.7 98.3 770.3 103.7 800 105.2C829.7 106.7 859.3 104.3 889 100.3C918.7 96.3 948.3 90.7 978 92.5C1007.7 94.3 1037.3 103.7 1067 109.5C1096.7 115.3 1126.3 117.7 1155.8 112.3C1185.3 107 1214.7 94 1244.2 89.2C1273.7 84.3 1303.3 87.7 1333 92C1362.7 96.3 1392.3 101.7 1422 106.5C1451.7 111.3 1481.3 115.7 1511 117.5C1540.7 119.3 1570.3 118.7 1585.2 118.3L1600 118L1600 0L1585.2 0C1570.3 0 1540.7 0 1511 0C1481.3 0 1451.7 0 1422 0C1392.3 0 1362.7 0 1333 0C1303.3 0 1273.7 0 1244.2 0C1214.7 0 1185.3 0 1155.8 0C1126.3 0 1096.7 0 1067 0C1037.3 0 1007.7 0 978 0C948.3 0 918.7 0 889 0C859.3 0 829.7 0 800 0C770.3 0 740.7 0 711 0C681.3 0 651.7 0 622 0C592.3 0 562.7 0 533 0C503.3 0 473.7 0 444.2 0C414.7 0 385.3 0 355.8 0C326.3 0 296.7 0 267 0C237.3 0 207.7 0 178 0C148.3 0 118.7 0 89 0C59.3 0 29.7 0 14.8 0L0 0Z" fill="#d591e1"></path><path d="M0 59L14.8 60.2C29.7 61.3 59.3 63.7 89 67C118.7 70.3 148.3 74.7 178 72.7C207.7 70.7 237.3 62.3 267 65C296.7 67.7 326.3 81.3 355.8 80.5C385.3 79.7 414.7 64.3 444.2 61C473.7 57.7 503.3 66.3 533 68.2C562.7 70 592.3 65 622 61.7C651.7 58.3 681.3 56.7 711 57C740.7 57.3 770.3 59.7 800 63.3C829.7 67 859.3 72 889 73C918.7 74 948.3 71 978 71.7C1007.7 72.3 1037.3 76.7 1067 75.8C1096.7 75 1126.3 69 1155.8 70.8C1185.3 72.7 1214.7 82.3 1244.2 83.5C1273.7 84.7 1303.3 77.3 1333 78.3C1362.7 79.3 1392.3 88.7 1422 87.3C1451.7 86 1481.3 74 1511 73C1540.7 72 1570.3 82 1585.2 87L1600 92L1600 0L1585.2 0C1570.3 0 1540.7 0 1511 0C1481.3 0 1451.7 0 1422 0C1392.3 0 1362.7 0 1333 0C1303.3 0 1273.7 0 1244.2 0C1214.7 0 1185.3 0 1155.8 0C1126.3 0 1096.7 0 1067 0C1037.3 0 1007.7 0 978 0C948.3 0 918.7 0 889 0C859.3 0 829.7 0 800 0C770.3 0 740.7 0 711 0C681.3 0 651.7 0 622 0C592.3 0 562.7 0 533 0C503.3 0 473.7 0 444.2 0C414.7 0 385.3 0 355.8 0C326.3 0 296.7 0 267 0C237.3 0 207.7 0 178 0C148.3 0 118.7 0 89 0C59.3 0 29.7 0 14.8 0L0 0Z" fill="#ff5b9c"></path><path d="M0 40L14.8 41C29.7 42 59.3 44 89 43C118.7 42 148.3 38 178 36.5C207.7 35 237.3 36 267 37.2C296.7 38.3 326.3 39.7 355.8 39C385.3 38.3 414.7 35.7 444.2 33.3C473.7 31 503.3 29 533 31.2C562.7 33.3 592.3 39.7 622 41.2C651.7 42.7 681.3 39.3 711 40.2C740.7 41 770.3 46 800 50C829.7 54 859.3 57 889 53C918.7 49 948.3 38 978 34.3C1007.7 30.7 1037.3 34.3 1067 36.5C1096.7 38.7 1126.3 39.3 1155.8 38.7C1185.3 38 1214.7 36 1244.2 35.7C1273.7 35.3 1303.3 36.7 1333 39.3C1362.7 42 1392.3 46 1422 46C1451.7 46 1481.3 42 1511 43.7C1540.7 45.3 1570.3 52.7 1585.2 56.3L1600 60L1600 0L1585.2 0C1570.3 0 1540.7 0 1511 0C1481.3 0 1451.7 0 1422 0C1392.3 0 1362.7 0 1333 0C1303.3 0 1273.7 0 1244.2 0C1214.7 0 1185.3 0 1155.8 0C1126.3 0 1096.7 0 1067 0C1037.3 0 1007.7 0 978 0C948.3 0 918.7 0 889 0C859.3 0 829.7 0 800 0C770.3 0 740.7 0 711 0C681.3 0 651.7 0 622 0C592.3 0 562.7 0 533 0C503.3 0 473.7 0 444.2 0C414.7 0 385.3 0 355.8 0C326.3 0 296.7 0 267 0C237.3 0 207.7 0 178 0C148.3 0 118.7 0 89 0C59.3 0 29.7 0 14.8 0L0 0Z" fill="#fb3f32"></path></svg>