<svg id="visual" viewBox="0 0 900 600" width="900" height="600" xmlns="http://www.w3.org/2000/svg" xmlns:xlink="http://www.w3.org/1999/xlink" version="1.1"><rect x="0" y="0" width="900" height="600" fill="#eee"></rect><path d="M0 561L6 563.5C12 566 24 571 36 574.2C48 577.3 60 578.7 72 576.3C84 574 96 568 108 567.3C120 566.7 132 571.3 144 573.7C156 576 168 576 180 576C192 576 204 576 216 573.7C228 571.3 240 566.7 252 565C264 563.3 276 564.7 288 565.5C300 566.3 312 566.7 324 568C336 569.3 348 571.7 360 570.2C372 568.7 384 563.3 396 560.5C408 557.7 420 557.3 432 560.7C444 564 456 571 468 573.7C480 576.3 492 574.7 504 571.7C516 568.7 528 564.3 540 565.3C552 566.3 564 572.7 576 572.2C588 571.7 600 564.3 612 564C624 563.7 636 570.3 648 570.8C660 571.3 672 565.7 684 565.8C696 566 708 572 720 572.3C732 572.7 744 567.3 756 565.5C768 563.7 780 565.3 792 566.8C804 568.3 816 569.7 828 569C840 568.3 852 565.7 864 566.7C876 567.7 888 572.3 894 574.7L900 577L900 601L894 601C888 601 876 601 864 601C852 601 840 601 828 601C816 601 804 601 792 601C780 601 768 601 756 601C744 601 732 601 720 601C708 601 696 601 684 601C672 601 660 601 648 601C636 601 624 601 612 601C600 601 588 601 576 601C564 601 552 601 540 601C528 601 516 601 504 601C492 601 480 601 468 601C456 601 444 601 432 601C420 601 408 601 396 601C384 601 372 601 360 601C348 601 336 601 324 601C312 601 300 601 288 601C276 601 264 601 252 601C240 601 228 601 216 601C204 601 192 601 180 601C168 601 156 601 144 601C132 601 120 601 108 601C96 601 84 601 72 601C60 601 48 601 36 601C24 601 12 601 6 601L0 601Z" fill="#fb3f32" stroke-linecap="round" stroke-linejoin="miter"></path></svg>