<svg id="visual" viewBox="0 10 1600 300" width="1600" height="300" xmlns="http://www.w3.org/2000/svg" xmlns:xlink="http://www.w3.org/1999/xlink" version="1.1"><rect x="0" y="0" width="1600" height="300" fill="#eee"></rect><path d="M0 149L20.5 157C41 165 82 181 123 188C164 195 205 193 246 191.2C287 189.3 328 187.7 369 182.3C410 177 451 168 492 163.2C533 158.3 574 157.7 615 155.5C656 153.3 697 149.7 738.2 152.5C779.3 155.3 820.7 164.7 861.8 171.2C903 177.7 944 181.3 985 187.7C1026 194 1067 203 1108 206.3C1149 209.7 1190 207.3 1231 200.3C1272 193.3 1313 181.7 1354 182.3C1395 183 1436 196 1477 200.3C1518 204.7 1559 200.3 1579.5 198.2L1600 196L1600 0L1579.5 0C1559 0 1518 0 1477 0C1436 0 1395 0 1354 0C1313 0 1272 0 1231 0C1190 0 1149 0 1108 0C1067 0 1026 0 985 0C944 0 903 0 861.8 0C820.7 0 779.3 0 738.2 0C697 0 656 0 615 0C574 0 533 0 492 0C451 0 410 0 369 0C328 0 287 0 246 0C205 0 164 0 123 0C82 0 41 0 20.5 0L0 0Z" fill="#eeeeee"></path><path d="M0 143L20.5 141.2C41 139.3 82 135.7 123 134.7C164 133.7 205 135.3 246 140.5C287 145.7 328 154.3 369 159C410 163.7 451 164.3 492 162.8C533 161.3 574 157.7 615 153.3C656 149 697 144 738.2 147.5C779.3 151 820.7 163 861.8 163.7C903 164.3 944 153.7 985 150.8C1026 148 1067 153 1108 154C1149 155 1190 152 1231 148.2C1272 144.3 1313 139.7 1354 135C1395 130.3 1436 125.7 1477 126C1518 126.3 1559 131.7 1579.5 134.3L1600 137L1600 0L1579.5 0C1559 0 1518 0 1477 0C1436 0 1395 0 1354 0C1313 0 1272 0 1231 0C1190 0 1149 0 1108 0C1067 0 1026 0 985 0C944 0 903 0 861.8 0C820.7 0 779.3 0 738.2 0C697 0 656 0 615 0C574 0 533 0 492 0C451 0 410 0 369 0C328 0 287 0 246 0C205 0 164 0 123 0C82 0 41 0 20.5 0L0 0Z" fill="#fbc7bc"></path><path d="M0 125L20.5 123.2C41 121.3 82 117.7 123 120C164 122.3 205 130.7 246 130C287 129.3 328 119.7 369 119.7C410 119.7 451 129.3 492 133.3C533 137.3 574 135.7 615 130C656 124.3 697 114.7 738.2 115C779.3 115.3 820.7 125.7 861.8 125.3C903 125 944 114 985 106.3C1026 98.7 1067 94.3 1108 93C1149 91.7 1190 93.3 1231 98C1272 102.7 1313 110.3 1354 110.8C1395 111.3 1436 104.7 1477 103.2C1518 101.7 1559 105.3 1579.5 107.2L1600 109L1600 0L1579.5 0C1559 0 1518 0 1477 0C1436 0 1395 0 1354 0C1313 0 1272 0 1231 0C1190 0 1149 0 1108 0C1067 0 1026 0 985 0C944 0 903 0 861.8 0C820.7 0 779.3 0 738.2 0C697 0 656 0 615 0C574 0 533 0 492 0C451 0 410 0 369 0C328 0 287 0 246 0C205 0 164 0 123 0C82 0 41 0 20.5 0L0 0Z" fill="#ff9f8c"></path><path d="M0 70L20.5 74.2C41 78.3 82 86.7 123 90.7C164 94.7 205 94.3 246 92.3C287 90.3 328 86.7 369 86C410 85.3 451 87.7 492 88.2C533 88.7 574 87.3 615 84.5C656 81.7 697 77.3 738.2 74.3C779.3 71.3 820.7 69.7 861.8 70.7C903 71.7 944 75.3 985 78.3C1026 81.3 1067 83.7 1108 83C1149 82.3 1190 78.7 1231 76.5C1272 74.3 1313 73.7 1354 77.2C1395 80.7 1436 88.3 1477 86.3C1518 84.3 1559 72.7 1579.5 66.8L1600 61L1600 0L1579.5 0C1559 0 1518 0 1477 0C1436 0 1395 0 1354 0C1313 0 1272 0 1231 0C1190 0 1149 0 1108 0C1067 0 1026 0 985 0C944 0 903 0 861.8 0C820.7 0 779.3 0 738.2 0C697 0 656 0 615 0C574 0 533 0 492 0C451 0 410 0 369 0C328 0 287 0 246 0C205 0 164 0 123 0C82 0 41 0 20.5 0L0 0Z" fill="#ff745e"></path><path d="M0 63L20.5 63C41 63 82 63 123 60.3C164 57.7 205 52.3 246 50.2C287 48 328 49 369 47.8C410 46.7 451 43.3 492 44.2C533 45 574 50 615 51.5C656 53 697 51 738.2 48.2C779.3 45.3 820.7 41.7 861.8 43.2C903 44.7 944 51.3 985 51.8C1026 52.3 1067 46.7 1108 45.3C1149 44 1190 47 1231 48.8C1272 50.7 1313 51.3 1354 53.2C1395 55 1436 58 1477 56.7C1518 55.3 1559 49.7 1579.5 46.8L1600 44L1600 0L1579.5 0C1559 0 1518 0 1477 0C1436 0 1395 0 1354 0C1313 0 1272 0 1231 0C1190 0 1149 0 1108 0C1067 0 1026 0 985 0C944 0 903 0 861.8 0C820.7 0 779.3 0 738.2 0C697 0 656 0 615 0C574 0 533 0 492 0C451 0 410 0 369 0C328 0 287 0 246 0C205 0 164 0 123 0C82 0 41 0 20.5 0L0 0Z" fill="#fb3f32"></path></svg>
